<?xml version="1.0" standalone="no"?>
<!DOCTYPE svg PUBLIC "-//W3C//DTD SVG 20010904//EN"
 "http://www.w3.org/TR/2001/REC-SVG-20010904/DTD/svg10.dtd">
<svg version="1.0" xmlns="http://www.w3.org/2000/svg"
 width="1024.000000pt" height="1024.000000pt" viewBox="0 0 1024.000000 1024.000000"
 preserveAspectRatio="xMidYMid meet">
<metadata>
Created by potrace 1.14, written by Peter Selinger 2001-2017
</metadata>
<g transform="translate(0.000000,1024.000000) scale(0.100000,-0.100000)"
fill="#000000" stroke="none">
<path d="M4827 10229 c7 -7 15 -10 18 -7 3 3 -2 9 -12 12 -14 6 -15 5 -6 -5z"/>
<path d="M4870 10225 c6 -7 -3 -10 -26 -11 -19 0 -34 3 -34 8 0 4 -5 8 -11 8
-5 0 -7 -4 -4 -10 9 -14 -18 -12 -34 3 -12 10 -13 9 -7 -7 5 -16 4 -17 -9 -6
-12 10 -15 10 -15 0 0 -10 -3 -10 -15 0 -8 7 -15 9 -15 4 0 -5 -28 -9 -62 -8
-35 0 -70 -3 -79 -7 -9 -5 -21 -3 -29 4 -10 9 -11 9 -5 -1 4 -8 2 -13 -6 -11
-8 1 -31 1 -52 0 -28 -1 -36 -4 -31 -13 6 -10 5 -10 -8 -1 -8 7 -18 10 -21 7
-6 -6 -48 -12 -118 -18 -19 -1 -40 -5 -45 -8 -5 -3 -25 -5 -46 -4 -20 0 -34
-2 -31 -6 2 -5 -7 -8 -21 -8 -14 0 -26 -5 -26 -11 0 -8 -5 -8 -15 1 -11 9 -15
10 -15 1 0 -8 -8 -10 -20 -6 -11 3 -20 3 -20 -2 0 -4 -16 -9 -36 -10 -21 -1
-44 -5 -53 -9 -9 -4 -32 -9 -51 -11 -19 -2 -37 -7 -40 -11 -3 -4 -18 -8 -35
-10 -16 -2 -35 -8 -41 -13 -6 -5 -14 -6 -17 -3 -3 3 -12 2 -19 -2 -7 -5 -20
-9 -28 -9 -8 0 -21 -4 -27 -8 -7 -5 -17 -5 -23 -2 -5 3 -10 1 -10 -6 0 -7 -3
-9 -7 -6 -3 4 -12 2 -20 -4 -7 -6 -13 -8 -13 -4 0 4 -11 0 -25 -9 -16 -11 -25
-12 -25 -5 0 8 -4 9 -13 0 -8 -6 -17 -8 -20 -4 -4 3 -7 1 -7 -6 0 -7 -6 -11
-14 -8 -8 3 -16 1 -18 -4 -2 -5 -13 -11 -26 -12 -12 0 -22 -6 -22 -11 0 -5 -3
-6 -6 -3 -4 3 -16 1 -28 -5 -11 -7 -25 -11 -29 -10 -4 1 -21 -5 -37 -13 -17
-9 -30 -12 -30 -8 0 5 -4 4 -8 -2 -8 -11 -64 -34 -102 -42 -14 -3 -33 -12 -42
-21 -10 -8 -18 -12 -18 -8 0 3 -13 0 -30 -9 -16 -9 -30 -12 -30 -8 0 5 -5 0
-11 -9 -5 -10 -16 -15 -24 -12 -8 4 -15 1 -15 -5 0 -6 -6 -11 -12 -11 -7 0
-35 -11 -62 -25 -27 -13 -53 -22 -57 -20 -4 3 -10 -2 -13 -11 -3 -8 -10 -13
-14 -10 -5 3 -18 -3 -28 -13 -11 -9 -25 -16 -32 -13 -6 2 -12 -1 -12 -6 0 -6
-14 -13 -30 -17 -17 -4 -28 -11 -24 -16 3 -5 -6 -9 -20 -9 -14 0 -26 -5 -26
-12 0 -6 -3 -9 -6 -5 -4 3 -13 -1 -21 -9 -8 -8 -18 -12 -23 -9 -4 3 -11 -2
-14 -11 -4 -9 -9 -14 -13 -11 -3 4 -12 -1 -20 -11 -10 -11 -12 -12 -8 -2 4 8
-1 6 -9 -4 -9 -11 -16 -16 -16 -12 0 5 -7 3 -15 -4 -8 -7 -15 -10 -15 -7 0 3
-12 -5 -27 -19 -15 -14 -33 -22 -40 -20 -7 3 -13 1 -13 -4 0 -6 -16 -18 -35
-27 -19 -9 -32 -19 -30 -22 2 -4 -16 -15 -38 -26 -41 -20 -54 -28 -82 -52 -7
-7 -17 -13 -22 -13 -4 0 -21 -12 -38 -26 -16 -14 -43 -33 -60 -41 -16 -9 -32
-19 -35 -22 -3 -4 -21 -18 -40 -31 -19 -13 -42 -31 -51 -39 -24 -23 -71 -56
-76 -53 -2 1 -19 -14 -38 -34 -19 -20 -35 -33 -35 -30 0 3 -11 -4 -25 -16 -13
-11 -22 -25 -19 -29 2 -4 -4 -6 -15 -4 -12 2 -22 -3 -26 -13 -3 -9 -26 -32
-51 -50 -24 -18 -42 -37 -39 -42 4 -6 -1 -7 -11 -3 -12 4 -15 3 -10 -5 4 -7 2
-12 -3 -12 -6 0 -37 -27 -70 -59 -33 -33 -62 -57 -65 -53 -3 3 -6 -1 -6 -10 0
-8 -12 -20 -26 -26 -14 -7 -23 -16 -19 -21 3 -5 -4 -12 -15 -16 -11 -3 -19
-11 -17 -18 1 -6 -3 -11 -10 -12 -7 0 -18 -6 -25 -14 -11 -12 -10 -13 2 -6 13
8 13 6 1 -8 -7 -9 -16 -15 -20 -13 -3 1 -14 -5 -23 -16 -10 -10 -15 -18 -10
-18 4 0 -1 -5 -11 -11 -9 -6 -15 -14 -12 -20 3 -5 -1 -6 -10 -3 -9 4 -15 2
-13 -2 2 -5 -7 -20 -19 -34 -13 -13 -23 -28 -23 -32 0 -5 -4 -7 -8 -4 -4 2
-17 -9 -27 -25 -11 -16 -23 -29 -27 -29 -5 0 -8 -7 -8 -16 0 -8 -3 -13 -7 -11
-5 3 -14 -1 -21 -9 -7 -8 -10 -14 -6 -14 4 0 -2 -9 -14 -21 -12 -11 -20 -24
-17 -29 4 -6 -2 -7 -12 -3 -10 3 -15 3 -12 -1 4 -4 -6 -21 -22 -39 -16 -17
-29 -36 -29 -41 0 -5 -11 -19 -25 -32 -14 -13 -25 -27 -25 -32 0 -5 -7 -15
-15 -22 -8 -7 -12 -17 -8 -23 3 -5 1 -7 -4 -4 -14 9 -37 -19 -27 -34 4 -7 3
-9 -2 -6 -6 3 -16 2 -24 -4 -13 -7 -13 -9 0 -9 12 -1 11 -3 -3 -11 -9 -6 -15
-14 -12 -20 4 -5 -2 -9 -11 -9 -10 0 -15 -3 -11 -6 3 -3 -5 -18 -18 -32 -13
-14 -22 -29 -20 -32 3 -4 -7 -18 -20 -30 -14 -13 -25 -28 -25 -35 0 -6 -13
-26 -30 -45 -16 -19 -29 -38 -30 -43 0 -4 -12 -26 -27 -50 -14 -23 -25 -44
-24 -46 2 -2 -2 -7 -7 -10 -6 -3 -12 -13 -14 -21 -4 -19 -21 -39 -30 -34 -4 3
-10 -11 -14 -31 -3 -19 -10 -35 -14 -35 -7 0 -23 -34 -23 -50 0 -3 -6 -9 -13
-15 -7 -5 -14 -19 -16 -30 -2 -11 -11 -28 -22 -37 -10 -10 -16 -24 -12 -33 3
-9 2 -13 -3 -10 -9 5 -27 -32 -23 -48 1 -4 -5 -10 -13 -13 -8 -3 -12 -10 -9
-15 3 -5 -2 -12 -10 -15 -9 -3 -13 -10 -10 -15 3 -6 -2 -21 -10 -34 -9 -14
-13 -25 -9 -25 5 0 3 -4 -2 -8 -6 -4 -24 -36 -39 -72 -16 -36 -34 -68 -40 -72
-7 -5 -7 -8 2 -8 10 0 10 -4 -2 -15 -8 -8 -13 -24 -11 -35 2 -11 0 -18 -6 -15
-5 4 -10 1 -10 -4 -3 -20 -5 -26 -17 -47 -6 -12 -8 -24 -5 -28 3 -3 0 -6 -7
-6 -7 0 -10 -3 -7 -7 4 -3 2 -12 -4 -20 -6 -7 -9 -22 -6 -33 3 -11 1 -18 -4
-14 -8 5 -11 -3 -8 -22 0 -4 -5 -10 -11 -14 -7 -4 -13 -19 -13 -34 -1 -14 -5
-26 -8 -26 -4 0 -10 -7 -13 -16 -3 -8 -2 -12 4 -9 12 8 -22 -57 -35 -67 -6 -5
-4 -8 5 -8 9 0 11 -3 5 -8 -5 -4 -10 -11 -11 -17 -2 -26 -17 -75 -23 -75 -4 0
-8 -11 -9 -25 -3 -37 -6 -49 -15 -56 -4 -3 -9 -17 -11 -30 -1 -13 -5 -31 -8
-39 -24 -69 -26 -80 -15 -73 8 5 8 2 0 -8 -7 -9 -14 -24 -16 -35 -1 -10 -6
-24 -10 -31 -4 -6 -4 -18 -1 -27 3 -9 2 -16 -3 -16 -5 0 -10 -6 -10 -12 -1 -7
-4 -31 -8 -53 -5 -22 -9 -47 -10 -55 -1 -8 -6 -23 -10 -32 -4 -10 -5 -25 -1
-33 3 -8 1 -15 -3 -15 -5 0 -8 -8 -7 -17 2 -9 -3 -35 -9 -58 -7 -22 -11 -48
-9 -57 1 -10 -3 -18 -9 -18 -8 0 -8 -3 1 -8 7 -5 10 -16 6 -25 -3 -9 -10 -15
-14 -12 -5 3 -5 -7 -1 -22 4 -17 2 -37 -5 -51 -7 -13 -11 -35 -9 -48 1 -13 -2
-24 -6 -24 -5 0 -4 -11 1 -25 5 -14 6 -25 1 -25 -11 0 -8 -44 4 -52 6 -5 5 -8
-2 -8 -8 0 -11 -11 -9 -30 2 -17 -1 -33 -7 -37 -6 -4 -7 -1 -2 7 5 9 4 11 -3
6 -9 -5 -9 -13 -1 -28 7 -14 7 -18 0 -14 -7 5 -10 -105 -11 -359 0 -278 2
-365 11 -359 8 5 9 3 3 -7 -14 -23 -13 -38 2 -32 12 4 12 0 4 -23 -8 -20 -8
-30 -1 -32 15 -5 14 -45 -1 -61 -11 -11 -10 -12 0 -7 9 6 13 -2 12 -31 0 -21
0 -51 0 -67 0 -15 5 -35 12 -44 11 -13 11 -14 0 -8 -12 7 -12 4 -2 -14 6 -12
9 -28 6 -36 -3 -9 1 -14 12 -15 10 0 12 -3 5 -6 -14 -5 -18 -33 -5 -33 5 0 8
-16 7 -36 -2 -20 1 -50 7 -68 13 -43 16 -63 22 -121 3 -27 5 -50 6 -50 1 0 4
-13 6 -30 3 -16 11 -36 17 -44 10 -12 9 -13 -1 -7 -11 7 -12 4 -3 -13 7 -12 9
-26 6 -31 -3 -5 -1 -11 4 -15 5 -3 8 -14 6 -25 -2 -12 0 -18 6 -15 5 4 9 -9 9
-29 0 -19 4 -37 9 -40 5 -4 8 -14 7 -24 -2 -9 4 -23 13 -30 9 -8 10 -10 3 -7
-9 5 -12 1 -10 -11 2 -11 6 -21 10 -24 5 -5 18 -56 20 -87 1 -7 4 -13 8 -13 4
0 7 -6 8 -12 2 -29 14 -73 23 -84 5 -6 6 -14 2 -17 -3 -4 -2 -7 4 -7 6 0 9 -9
6 -20 -3 -11 -1 -20 4 -20 5 0 10 -7 11 -15 1 -8 3 -22 4 -30 1 -8 5 -15 10
-15 4 0 8 -9 8 -20 0 -11 3 -20 8 -20 4 0 8 -12 9 -26 0 -15 6 -30 13 -34 6
-4 11 -10 11 -14 -3 -24 1 -36 10 -30 7 4 7 -1 -1 -16 -7 -12 -8 -20 -3 -17 5
3 15 -14 22 -39 7 -24 17 -44 22 -44 5 0 9 -11 9 -25 0 -14 7 -28 15 -31 8 -4
13 -10 10 -14 -6 -10 15 -62 28 -71 5 -3 8 -9 8 -13 -1 -3 9 -30 21 -59 13
-28 22 -55 20 -59 -1 -5 2 -8 8 -8 5 0 10 -7 10 -16 0 -9 5 -12 12 -8 7 4 8 3
4 -5 -4 -6 -2 -18 4 -26 7 -8 9 -15 4 -15 -5 0 -4 -4 1 -8 10 -7 37 -61 37
-72 0 -3 6 -9 14 -13 8 -5 12 -12 9 -18 -4 -5 -1 -9 4 -9 6 0 11 -8 11 -19 0
-10 7 -24 15 -31 8 -7 12 -16 9 -21 -3 -5 0 -9 5 -9 6 0 11 -7 11 -15 0 -8 5
-15 11 -15 5 0 7 -4 4 -10 -3 -5 -1 -10 5 -10 6 0 8 -5 5 -10 -3 -6 -1 -10 4
-10 6 0 11 -7 11 -16 0 -8 4 -12 10 -9 5 3 7 0 4 -8 -3 -8 2 -20 11 -27 8 -7
15 -19 15 -26 0 -8 4 -14 8 -14 5 0 19 -22 32 -50 13 -27 27 -47 32 -44 4 3 8
-4 8 -16 0 -11 6 -23 14 -26 9 -3 12 -13 9 -22 -4 -9 -3 -14 2 -10 8 7 55 -55
55 -72 0 -6 5 -10 10 -10 6 0 10 -6 10 -13 0 -7 13 -26 28 -43 32 -32 58 -74
54 -87 -1 -5 2 -6 8 -2 5 3 10 -1 10 -10 0 -9 4 -13 10 -10 5 3 10 1 10 -5 0
-14 26 -41 32 -35 3 3 5 -2 6 -10 1 -8 3 -22 4 -30 1 -8 4 -12 8 -10 3 2 15
-8 26 -23 10 -15 29 -36 42 -48 12 -12 22 -27 22 -33 0 -7 4 -9 10 -6 5 3 10
-3 10 -15 0 -12 4 -19 9 -16 5 4 15 -7 23 -24 7 -16 16 -30 20 -30 10 0 48
-37 48 -46 0 -4 14 -20 30 -36 17 -15 30 -32 30 -37 0 -5 9 -13 20 -16 11 -3
20 -10 20 -15 0 -17 51 -60 62 -54 7 4 8 2 4 -4 -4 -7 -2 -12 3 -12 6 0 10 -3
9 -7 -1 -5 32 -43 75 -85 42 -42 77 -75 77 -72 0 3 18 -13 39 -35 22 -23 45
-41 52 -41 7 0 9 -3 6 -6 -10 -10 34 -45 46 -37 5 3 7 1 3 -5 -3 -6 3 -17 14
-25 11 -7 17 -17 12 -22 -4 -5 -2 -5 5 -1 6 3 14 2 18 -4 4 -6 12 -7 18 -4 7
4 9 4 5 -1 -7 -8 15 -35 29 -35 5 0 15 -9 23 -20 8 -11 19 -20 25 -20 6 0 17
-9 25 -20 8 -11 19 -20 25 -20 6 0 17 -9 25 -19 7 -11 18 -18 22 -15 5 3 18
-6 29 -20 11 -14 27 -26 34 -26 8 0 17 -9 20 -20 4 -11 11 -18 16 -15 5 4 16
-1 25 -9 9 -9 20 -13 26 -10 6 4 8 2 4 -4 -7 -12 42 -54 55 -46 5 3 9 0 9 -5
0 -6 7 -11 16 -11 8 0 12 -4 9 -10 -3 -5 1 -10 9 -10 9 0 16 -4 16 -10 0 -5 5
-10 11 -10 7 0 18 -8 26 -17 8 -10 11 -12 7 -4 -5 9 2 8 19 -5 15 -10 27 -22
27 -26 0 -5 9 -8 20 -8 11 0 20 -4 20 -10 0 -5 7 -10 15 -10 8 0 15 -4 15 -10
0 -5 7 -10 16 -10 8 0 12 -4 9 -10 -3 -6 4 -10 16 -10 12 0 30 -10 40 -22 11
-11 22 -18 26 -15 3 4 12 -1 20 -11 10 -11 12 -12 8 -2 -4 10 -2 9 8 -2 8 -10
17 -15 20 -11 4 3 7 1 7 -5 0 -7 7 -12 15 -12 8 0 15 -4 15 -10 0 -5 9 -10 21
-10 11 0 17 -5 14 -10 -6 -9 -1 -11 38 -14 6 -1 19 -8 27 -16 20 -20 64 -44
55 -31 -3 6 -1 11 4 11 6 0 11 -7 11 -16 0 -8 5 -12 10 -9 6 3 10 1 10 -4 0
-6 9 -11 20 -11 11 0 20 -4 20 -10 0 -5 9 -10 20 -10 11 0 20 -4 20 -10 0 -5
9 -10 20 -10 11 0 20 -4 20 -10 0 -5 8 -10 18 -10 9 0 32 -9 50 -20 19 -12 30
-15 26 -8 -4 7 2 5 13 -5 11 -9 23 -14 26 -10 4 3 7 2 7 -4 0 -5 7 -10 15 -11
8 -1 22 -3 30 -4 8 -1 15 -5 15 -8 0 -10 50 -31 78 -33 11 0 20 -6 19 -12 -1
-5 12 -10 30 -10 17 0 31 -4 30 -10 -1 -5 6 -9 16 -7 9 2 17 -2 17 -9 0 -6 7
-9 15 -5 8 3 15 1 15 -5 0 -5 6 -9 13 -7 6 1 22 -3 35 -10 12 -7 22 -10 22 -6
0 3 7 1 15 -6 8 -6 19 -9 25 -5 5 3 10 1 10 -5 0 -7 6 -10 14 -7 8 3 16 2 18
-3 2 -6 15 -11 31 -12 15 -1 27 -6 27 -10 0 -4 11 -8 25 -8 14 0 25 -3 25 -7
0 -5 14 -9 31 -10 17 -1 38 -8 47 -15 13 -11 14 -11 8 1 -6 9 -1 8 17 -3 13
-9 29 -16 33 -15 5 1 11 1 14 -1 5 -1 36 -8 66 -14 7 -1 18 -7 26 -14 11 -9
17 -9 26 0 9 9 12 9 12 0 0 -7 6 -12 13 -11 6 1 20 -1 30 -6 10 -4 21 -5 24
-2 3 4 15 1 27 -6 11 -6 37 -12 56 -13 51 -3 52 -3 44 -17 -5 -8 -2 -8 9 2 10
7 17 9 17 3 0 -6 8 -9 18 -8 9 2 20 -2 24 -8 5 -7 8 -6 8 3 0 11 4 10 19 -3
13 -12 21 -14 26 -6 5 8 11 7 23 -2 13 -11 14 -11 7 2 -8 13 -7 13 8 1 14 -11
17 -11 17 0 0 12 2 12 9 0 9 -14 36 -19 134 -25 32 -2 63 -8 70 -13 7 -5 59
-10 117 -12 68 -1 107 -6 112 -14 6 -9 8 -9 8 1 0 6 12 12 26 12 16 0 23 -4
18 -12 -4 -6 -3 -8 4 -4 5 3 12 1 14 -6 3 -7 7 -5 11 6 5 11 3 15 -5 10 -7 -4
-8 -3 -4 4 5 9 12 9 26 0 10 -7 17 -15 15 -18 -2 -3 7 -6 20 -6 13 0 21 4 19
8 -3 4 0 8 5 8 6 0 11 -4 11 -10 0 -5 7 -10 16 -10 9 0 12 5 8 13 -6 9 -4 9 8
-1 19 -15 442 -17 433 -1 -4 5 1 9 10 9 9 0 14 -4 11 -8 -3 -5 1 -9 9 -9 8 0
11 5 8 10 -4 6 0 8 9 4 9 -3 21 0 28 6 10 9 11 9 6 0 -9 -17 6 -17 23 -1 11
11 12 10 6 0 -6 -11 -3 -12 12 -4 11 6 25 7 33 2 9 -5 20 -4 28 2 10 9 16 8
22 -1 4 -8 9 -9 11 -3 5 12 89 19 106 9 6 -4 13 -3 15 3 1 5 26 12 53 15 28 3
61 8 74 10 13 2 45 7 70 11 25 4 55 8 66 11 11 2 45 6 75 9 30 4 57 9 60 13 5
6 38 12 85 15 11 1 26 5 33 9 6 5 17 5 22 2 6 -3 10 -1 10 4 0 6 3 10 8 10 4
-1 9 -1 12 0 3 2 21 4 40 6 45 6 111 25 129 39 12 9 13 8 6 -4 -8 -13 -7 -13
8 -1 9 7 17 10 17 7 0 -4 10 -1 23 6 12 6 30 13 40 15 38 7 62 12 65 14 1 1 5
2 10 4 4 1 15 5 25 9 9 5 23 6 31 3 8 -3 20 1 26 9 7 8 19 14 26 14 8 0 14 4
14 8 0 5 10 8 23 7 12 -1 28 2 35 8 6 5 12 6 12 1 0 -5 4 -3 8 3 5 7 20 14 35
15 15 1 27 7 27 12 0 5 3 7 6 3 3 -3 22 3 41 14 19 11 38 17 43 14 5 -3 11 -1
15 5 4 6 11 8 16 5 5 -4 9 -1 9 5 0 7 7 10 15 6 8 -3 15 -1 15 4 0 6 3 9 8 8
4 -1 29 8 55 20 26 13 53 20 59 16 7 -4 8 -3 4 4 -4 7 -1 12 9 12 10 0 13 5 9
12 -4 7 -3 8 5 4 6 -4 19 -2 28 6 14 11 16 11 9 -2 -4 -9 -2 -8 7 2 8 10 17
15 20 11 4 -3 7 -1 7 5 0 6 7 9 15 6 8 -4 15 -1 15 6 0 6 5 8 10 5 6 -3 10 -1
10 6 0 7 3 10 6 6 3 -3 25 5 49 18 23 13 45 21 49 18 3 -4 6 1 6 9 0 9 6 15
13 15 17 -2 109 44 125 63 10 11 12 11 6 1 -4 -9 7 -4 27 9 19 13 35 28 37 32
2 4 9 5 16 2 8 -3 16 2 20 11 3 10 12 15 21 11 8 -3 15 -2 15 3 0 5 8 12 18
15 33 12 67 36 64 46 -1 5 1 9 5 9 21 -3 44 2 39 9 -2 4 15 16 37 27 23 11 47
27 54 35 7 8 13 11 13 5 0 -7 3 -7 8 0 10 15 70 55 81 55 5 0 12 7 15 16 4 9
9 14 12 11 6 -6 21 4 54 37 11 11 20 16 20 12 0 -4 6 -1 14 6 8 7 12 15 11 18
-2 3 5 6 15 7 11 1 33 16 50 33 16 17 30 28 30 24 0 -4 9 5 21 20 11 14 28 26
38 26 9 0 31 16 48 35 17 19 34 35 38 35 7 0 22 13 76 63 10 9 19 15 19 12 0
-3 20 15 45 39 25 25 45 43 45 41 0 -3 42 37 94 89 52 52 97 92 100 88 6 -5
10 13 7 30 0 4 7 4 16 1 9 -4 14 -2 11 3 -6 11 48 65 56 56 3 -3 6 -1 6 5 0 6
16 28 35 49 19 21 35 42 35 47 0 4 5 5 10 2 6 -3 10 -3 10 2 0 4 18 28 40 52
22 24 37 48 33 54 -3 6 -1 7 6 3 6 -4 14 0 18 11 3 10 19 30 35 44 15 14 25
28 22 31 -3 4 4 9 15 13 12 3 21 13 21 21 0 8 7 17 15 20 8 4 15 13 15 21 0
18 25 44 35 35 4 -4 6 -2 5 3 -5 22 1 35 16 35 8 0 12 5 9 10 -3 6 1 13 10 16
9 4 14 13 11 21 -3 8 -2 12 2 9 4 -2 20 15 36 40 15 24 31 44 36 44 4 0 13 13
20 30 7 16 17 30 22 30 5 0 6 5 3 10 -3 6 1 13 10 16 15 6 50 71 46 87 -1 5 3
6 8 3 5 -3 16 10 25 29 9 19 21 37 26 40 6 4 8 11 5 16 -4 5 -1 9 5 9 6 0 18
16 26 35 8 19 19 35 26 35 6 0 8 3 5 7 -4 3 0 15 10 25 9 10 14 21 10 24 -3 3
3 15 13 27 11 12 18 24 17 27 -1 3 7 19 19 35 11 17 33 56 49 87 15 32 31 58
35 58 4 0 7 6 7 12 -1 20 43 108 53 108 6 0 10 5 10 11 0 5 -5 7 -12 3 -7 -4
-2 6 10 23 12 17 19 33 15 37 -3 3 -2 6 4 6 5 0 16 19 23 43 8 23 18 44 22 47
4 3 9 17 11 30 2 13 9 26 15 28 7 2 9 8 6 13 -3 6 -1 15 4 22 5 7 12 24 16 40
3 15 10 27 16 27 5 0 7 12 4 26 -3 16 -1 23 6 19 5 -3 10 0 11 7 1 27 8 48 23
79 9 17 13 35 10 40 -3 5 0 9 5 9 6 0 11 6 11 14 0 8 5 27 12 43 12 31 17 49
20 76 1 9 5 17 9 17 8 0 22 55 23 87 0 13 3 23 7 23 8 0 22 51 24 85 1 11 6
29 12 40 12 21 26 88 25 117 -1 10 2 18 6 18 4 0 9 10 10 23 4 37 7 51 15 65
5 6 6 12 4 12 -3 0 -1 17 5 38 5 20 11 54 13 75 2 21 9 45 16 54 12 14 12 16
0 8 -11 -6 -13 -4 -7 11 9 22 13 43 20 94 2 19 8 44 12 54 6 15 4 17 -7 11
-12 -8 -12 -6 -1 8 8 9 11 21 8 26 -4 5 -2 12 3 16 6 3 7 13 4 22 -5 11 -3 14
6 8 10 -6 11 -3 2 13 -7 13 -7 23 -2 27 6 3 9 18 7 33 -1 15 1 42 5 60 4 18 3
35 -3 38 -5 3 -5 11 2 19 8 9 8 15 0 20 -6 4 -7 12 0 24 6 12 5 22 -1 28 -8 8
-7 13 2 18 8 6 10 4 4 -6 -5 -8 -4 -10 0 -6 11 10 16 39 6 32 -4 -2 -8 2 -8
10 0 8 4 12 9 9 4 -3 8 0 8 5 0 6 -5 11 -11 11 -5 0 -7 5 -4 10 4 6 10 8 14 6
10 -6 6 77 -4 94 -5 8 -4 11 3 6 8 -5 10 53 9 203 -1 149 -5 207 -13 200 -7
-6 -11 1 -11 21 0 16 4 27 9 24 4 -3 3 6 -3 20 -10 20 -9 29 2 43 8 9 9 14 3
10 -8 -5 -12 17 -14 76 -4 150 -5 167 -11 167 -3 0 -5 16 -4 35 1 19 -1 35 -4
35 -3 0 -7 10 -7 23 -1 12 -5 42 -9 67 -4 25 -7 53 -7 63 1 9 -3 17 -7 17 -4
0 -7 12 -6 28 1 15 -5 54 -13 87 -7 33 -14 71 -14 85 0 14 -3 29 -6 35 -7 11
-12 40 -13 67 0 10 -5 20 -10 23 -5 4 -7 11 -4 16 4 5 1 9 -6 9 -10 0 -10 3
-1 12 7 7 8 17 1 30 -5 10 -7 18 -3 18 3 0 2 6 -4 13 -6 7 -12 25 -14 39 -2
15 -7 30 -10 34 -4 3 -4 12 -1 20 3 8 0 14 -7 14 -6 0 -8 5 -5 10 3 6 3 16 -2
23 -4 6 -9 23 -11 37 -2 13 -7 30 -13 36 -5 6 -6 13 -3 17 3 3 0 15 -6 27 -6
12 -13 31 -15 42 -9 46 -27 88 -38 88 -7 0 -6 4 3 10 8 5 10 10 5 10 -6 0 -12
10 -12 22 -1 13 -7 24 -13 26 -5 2 -8 8 -4 13 3 5 2 15 -3 22 -4 6 -8 14 -9
17 0 3 -7 19 -14 35 -7 17 -12 34 -11 39 1 4 -4 18 -12 30 -7 11 -19 40 -26
64 -6 24 -18 45 -25 48 -8 3 -12 14 -9 25 3 11 0 19 -6 19 -7 0 -10 4 -6 9 3
5 1 12 -5 16 -6 4 -8 11 -5 16 4 5 2 9 -4 9 -6 0 -8 7 -5 15 4 8 1 15 -5 15
-6 0 -11 7 -11 15 0 8 -4 15 -10 15 -5 0 -7 7 -4 15 4 8 1 15 -5 15 -6 0 -11
9 -11 20 0 11 -4 20 -10 20 -5 0 -10 6 -10 14 0 17 -62 139 -72 144 -5 2 -8
12 -8 22 0 10 -3 20 -7 22 -5 2 -24 33 -43 71 -19 37 -38 67 -42 67 -5 0 -8 9
-8 19 0 11 -4 21 -9 23 -5 2 -11 10 -13 18 -3 14 -7 20 -35 54 -6 7 -9 17 -6
20 4 3 1 6 -5 6 -7 0 -12 6 -12 13 0 7 -9 23 -20 35 -11 12 -20 25 -20 30 0 5
-7 15 -15 22 -8 7 -13 16 -10 20 3 4 -2 10 -10 14 -8 3 -15 11 -15 17 0 7 -8
18 -17 26 -11 9 -12 12 -3 7 9 -4 7 1 -5 14 -36 37 -44 50 -38 56 4 3 1 6 -5
6 -7 0 -12 6 -12 13 0 7 -9 20 -20 30 -12 10 -18 23 -14 29 4 7 3 8 -4 4 -7
-4 -12 -1 -12 8 0 9 -4 16 -10 16 -5 0 -10 7 -10 16 0 8 -4 13 -8 10 -4 -2
-14 9 -21 25 -7 16 -17 27 -22 23 -5 -3 -9 2 -9 10 0 9 -5 16 -11 16 -5 0 -7
5 -4 10 3 6 -1 10 -10 10 -9 0 -14 4 -11 9 3 5 -10 24 -28 42 -19 18 -32 37
-30 41 3 4 -1 8 -8 8 -7 1 -26 21 -41 45 -16 25 -33 45 -38 45 -5 0 -9 7 -9
15 0 8 -8 15 -17 15 -9 0 -13 3 -10 6 3 4 -7 19 -24 35 -17 16 -28 33 -24 39
4 6 -1 7 -11 3 -12 -4 -15 -3 -10 5 4 7 1 12 -9 12 -11 0 -15 5 -11 15 3 8 2
14 -2 14 -20 -3 -32 3 -32 16 0 8 -7 15 -16 15 -8 0 -12 5 -9 10 3 6 -1 10
-10 10 -9 0 -14 3 -12 8 6 9 -19 33 -27 25 -3 -4 -6 -1 -6 6 0 16 -25 41 -40
41 -6 0 -8 5 -5 10 6 9 -7 14 -27 11 -4 0 -4 7 -1 16 4 9 2 14 -3 11 -5 -3
-17 3 -26 13 -12 13 -13 19 -5 23 7 4 2 4 -11 2 -12 -2 -20 0 -17 4 3 5 -4 15
-15 23 -11 7 -17 17 -13 20 6 7 -13 11 -32 7 -5 -1 -7 2 -3 6 10 9 -63 80 -91
89 -12 3 -19 9 -17 13 2 4 -2 13 -10 20 -8 7 -14 9 -14 5 0 -4 -10 2 -22 14
-56 55 -78 73 -88 73 -6 0 -8 5 -5 10 3 6 -1 10 -9 10 -9 0 -16 5 -16 10 0 6
-7 10 -15 10 -8 0 -15 5 -15 11 0 5 -4 7 -10 4 -5 -3 -10 1 -10 10 0 9 -4 14
-9 11 -5 -3 -11 1 -15 9 -3 8 -12 15 -21 15 -8 0 -15 3 -15 8 0 4 -17 18 -38
32 -20 14 -43 30 -50 37 -7 7 -30 22 -52 34 -21 12 -36 27 -33 32 3 6 1 7 -6
3 -7 -5 -20 1 -30 13 -10 11 -21 18 -25 14 -3 -3 -6 -1 -6 6 0 8 -6 11 -17 7
-10 -4 -14 -4 -10 0 7 7 -54 54 -71 54 -5 0 -17 10 -26 23 -9 12 -14 16 -10 8
5 -9 -2 -8 -19 5 -15 10 -27 23 -27 27 0 5 -4 5 -10 2 -5 -3 -20 3 -32 14 -12
12 -27 21 -34 21 -6 0 -17 7 -24 15 -7 9 -15 13 -18 10 -3 -3 -20 7 -39 21
-18 14 -33 22 -33 18 0 -4 -9 1 -20 11 -11 10 -20 14 -20 9 0 -5 -4 -4 -8 1
-8 12 -175 97 -182 93 -3 -2 -19 7 -37 20 -17 12 -37 22 -45 22 -7 0 -28 9
-46 20 -18 11 -41 20 -51 20 -11 0 -21 4 -23 8 -4 9 -105 52 -124 52 -7 0 -14
3 -16 8 -3 8 -124 53 -148 56 -8 0 -21 6 -28 13 -7 7 -19 10 -27 7 -8 -4 -15
-1 -15 6 0 7 -8 10 -20 7 -11 -3 -20 -1 -20 5 0 5 -4 7 -9 4 -5 -4 -11 -2 -13
3 -1 6 -14 12 -28 14 -14 2 -34 7 -45 11 -50 19 -72 26 -95 29 -24 4 -41 9
-88 28 -15 6 -21 6 -17 -1 3 -5 -7 -3 -21 5 -15 8 -31 12 -36 9 -4 -3 -8 0 -8
6 0 6 -4 9 -9 5 -5 -3 -12 -1 -16 5 -4 6 -11 8 -16 4 -5 -3 -24 -1 -42 5 -32
10 -74 18 -137 27 -19 3 -37 9 -38 15 -2 5 -7 7 -12 4 -4 -3 -29 -1 -54 4 -28
5 -46 5 -46 -1 0 -5 -7 -2 -16 7 -12 11 -20 13 -29 5 -9 -8 -14 -8 -17 0 -2 7
-21 13 -43 15 -22 2 -42 4 -45 5 -3 2 -9 2 -14 1 -4 -1 -14 3 -21 9 -10 8 -15
8 -20 0 -5 -8 -11 -8 -21 1 -11 9 -14 8 -14 -2 0 -9 -3 -10 -8 -3 -4 5 -16 11
-27 12 -11 0 -53 3 -94 6 -41 3 -76 8 -79 10 -2 3 -13 1 -23 -5 -11 -5 -19 -6
-19 -2 0 4 -41 8 -91 8 -50 0 -92 2 -95 6 -2 4 10 5 26 4 16 -1 28 1 25 5 -6
9 -78 6 -95 -5 -9 -5 -11 -4 -6 3 5 8 -1 12 -14 12 -14 0 -19 -4 -14 -12 6
-10 5 -10 -7 -1 -20 16 -382 14 -369 -2z m5355 -4934 c0 -16 -3 -27 -7 -25 -6
4 -5 29 1 52 4 11 7 -3 6 -27z m0 -431 c3 -5 1 -10 -4 -10 -6 0 -11 5 -11 10
0 6 2 10 4 10 3 0 8 -4 11 -10z"/>
<path d="M5390 10230 c0 -5 5 -10 11 -10 5 0 7 5 4 10 -3 6 -8 10 -11 10 -2 0
-4 -4 -4 -10z"/>
</g>
</svg>
