<?xml version="1.0" standalone="no"?>
<!DOCTYPE svg PUBLIC "-//W3C//DTD SVG 20010904//EN"
 "http://www.w3.org/TR/2001/REC-SVG-20010904/DTD/svg10.dtd">
<svg version="1.0" xmlns="http://www.w3.org/2000/svg"
 width="1024.000000pt" height="1024.000000pt" viewBox="0 0 1024.000000 1024.000000"
 preserveAspectRatio="xMidYMid meet">

<g transform="translate(0.000000,1024.000000) scale(0.100000,-0.100000)"
fill="#000000" stroke="none">
<path d="M4955 10229 c-414 -28 -430 -30 -690 -69 -662 -100 -1425 -401 -1975
-779 -14 -10 -70 -48 -125 -86 -152 -104 -372 -283 -539 -440 -466 -438 -801
-884 -1083 -1445 -211 -419 -354 -837 -446 -1300 -32 -161 -45 -247 -78 -510
-17 -141 -23 -624 -9 -755 6 -60 15 -166 20 -235 5 -69 19 -179 30 -245 12
-66 26 -147 31 -180 77 -472 267 -1017 519 -1486 92 -171 207 -363 247 -414 4
-5 25 -35 45 -65 74 -110 143 -201 292 -386 115 -143 519 -542 666 -659 69
-54 145 -115 169 -134 59 -47 110 -83 266 -187 178 -119 192 -127 260 -165 33
-17 76 -42 95 -54 67 -41 296 -153 440 -215 187 -80 361 -144 535 -195 33 -10
70 -21 81 -25 80 -30 415 -101 634 -135 58 -8 116 -18 130 -20 14 -3 97 -9
185 -14 88 -5 180 -14 205 -20 97 -25 708 3 960 44 52 8 127 19 165 25 68 9
103 16 205 41 25 6 74 16 110 24 202 40 572 164 855 285 199 85 504 244 660
345 148 95 258 170 325 219 41 31 95 71 119 89 275 204 666 593 886 882 22 28
67 88 100 131 51 67 141 199 241 354 12 19 51 87 86 150 303 542 493 1079 592
1680 39 233 46 294 46 386 0 55 7 137 15 184 19 108 19 303 0 445 -8 61 -15
160 -15 221 0 132 -13 234 -80 609 -13 74 -48 228 -72 314 -11 42 -25 94 -30
116 -9 41 -72 233 -87 270 -5 11 -29 74 -54 140 -66 176 -82 211 -189 425
-102 206 -216 404 -338 585 -68 102 -264 364 -307 410 -10 11 -40 48 -68 82
-68 86 -450 463 -560 554 -151 125 -334 262 -465 349 -69 45 -137 90 -151 101
-51 35 -348 197 -456 249 -459 219 -900 361 -1358 436 -211 35 -366 53 -451
54 -50 0 -115 4 -145 9 -79 14 -317 19 -444 10z m295 -1799 c193 -20 339 -60
495 -135 417 -200 709 -574 807 -1033 18 -87 21 -142 25 -509 l5 -413 276 0
c305 0 372 -7 480 -51 211 -84 355 -241 433 -474 l24 -70 3 -1440 c3 -1609 6
-1524 -67 -1680 -93 -197 -248 -330 -461 -397 l-75 -23 -2080 0 -2080 0 -70
24 c-135 46 -224 99 -312 188 -70 70 -90 98 -132 185 -87 180 -82 67 -79 1708
l3 1445 28 80 c79 226 247 394 472 472 80 27 81 27 397 31 l317 4 4 426 c4
464 6 478 68 665 44 132 91 229 174 353 229 343 603 580 1000 633 166 22 218
24 345 11z"/>
<path d="M5020 7700 c-161 -22 -289 -87 -411 -209 -95 -95 -146 -177 -188
-299 -25 -77 -25 -78 -29 -464 l-3 -388 731 0 731 0 -3 388 c-4 386 -4 387
-29 464 -38 111 -92 200 -171 284 -81 85 -155 137 -249 175 -114 46 -258 65
-379 49z"/>
<path d="M5025 5361 c-169 -27 -298 -93 -420 -216 -105 -104 -161 -203 -196
-345 -42 -167 -13 -367 76 -525 43 -77 143 -187 214 -236 l49 -34 4 -270 c4
-255 6 -273 28 -330 32 -83 123 -173 205 -204 128 -49 272 -24 373 65 113 99
131 170 132 504 l1 235 50 34 c67 46 165 153 212 232 21 35 49 100 64 144 23
70 27 97 27 210 0 95 -4 148 -17 195 -72 261 -292 474 -547 529 -68 15 -199
21 -255 12z"/>
</g>
</svg>
